<svg id="Layer_1" enable-background="new 0 0 256 256" height="512" viewBox="0 0 256 256" width="512" xmlns="http://www.w3.org/2000/svg"><path d="m232.084 155.644c-1.67-.08-3.37.28-4.93 1.09l-33.56 17.48h-53.14c-11.58 0-22.92 3.27-32.72 9.44l-7.48 4.7c-2.86 1.8-6.18 2.76-9.57 2.76h-.95v7.87c.006 0 .01-.001.016-.001v14.722c-.006 0-.01-.001-.016-.001v9.02l71.25-2.19c6.11-.4 11.99-2.45 17.02-5.95l59.22-45.53c1.94-1.35 2.57-3.24 2.62-5.06.11-4.35-3.41-8.16-7.76-8.35z" fill="#fce8cb"/><path d="m232.155 154.146c-1.962-.099-3.928.34-5.694 1.258l-33.234 17.311h-52.772c-11.88 0-23.471 3.344-33.518 9.67l-7.482 4.7c-2.629 1.655-5.662 2.53-8.771 2.53h-.95c-.829 0-1.5.671-1.5 1.5v7.87c0 .829.671 1.5 1.5 1.5.029 0 .062-.001.094-.003.793-.041 1.422-.696 1.422-1.498 0-.075-.005-.148-.016-.221v-6.156c3.482-.098 6.866-1.124 9.817-2.982l7.482-4.7c9.569-6.025 20.607-9.209 31.921-9.209h53.14c.241 0 .479-.058.693-.169l33.559-17.479c1.295-.672 2.736-.99 4.173-.923 3.519.154 6.416 3.274 6.326 6.811-.047 1.71-.693 2.977-2.034 3.912l-59.163 45.488c-4.794 3.336-10.417 5.302-16.209 5.682l-69.704 2.143v-7.251c.011-.072.016-.146.016-.221 0-.801-.628-1.456-1.419-1.498-.909-.058-1.597.638-1.597 1.497v9.02c0 .406.164.794.456 1.077.28.272.655.423 1.044.423h.046l71.302-2.193c6.389-.418 12.536-2.567 17.836-6.257l59.163-45.488c2.061-1.435 3.189-3.596 3.262-6.253.13-5.14-4.081-9.668-9.189-9.891z" fill="#3a312a"/><path d="m195.092 174.993c-.314-.767-1.191-1.133-1.956-.819-.767.314-1.133 1.19-.819 1.957 1.16 2.829-.496 6.244-2.731 8.155-2.608 2.231-6.237 3.314-9.44 4.27-7.229 2.158-13.785 3.487-20.725 4.895-6.705 1.36-13.637 2.766-22.191 5.072-.8.216-1.273 1.039-1.058 1.839.18.669.786 1.11 1.447 1.11.129 0 .261-.017.392-.052 8.462-2.281 15.347-3.678 22.006-5.028 7.008-1.421 13.628-2.764 20.987-4.96 3.488-1.042 7.441-2.222 10.532-4.865 2.96-2.533 5.335-7.235 3.556-11.574z" fill="#3a312a"/><path d="m16.154 175.196h47.25v64.397h-47.25z" fill="#f16c7a"/><path d="m63.404 173.696h-47.25c-.829 0-1.5.671-1.5 1.5v64.397c0 .829.671 1.5 1.5 1.5h12.975c.829 0 1.5-.671 1.5-1.5s-.671-1.5-1.5-1.5h-11.475v-61.397h44.25v61.397h-19.033c-.829 0-1.5.671-1.5 1.5s.671 1.5 1.5 1.5h20.533c.829 0 1.5-.671 1.5-1.5v-64.397c0-.829-.672-1.5-1.5-1.5z" fill="#3a312a"/><path d="m81.746 175.196h-18.342v64.397h18.342c4.413 0 7.991-3.578 7.991-7.991v-48.415c0-4.414-3.578-7.991-7.991-7.991z" fill="#8ac6dd"/><path d="m89.737 200.484c.829 0 1.5-.671 1.5-1.5v-15.797c0-5.233-4.258-9.491-9.491-9.491h-18.342c-.829 0-1.5.671-1.5 1.5v64.397c0 .829.671 1.5 1.5 1.5h18.342c5.233 0 9.491-4.258 9.491-9.491v-17.897c0-.829-.671-1.5-1.5-1.5s-1.5.671-1.5 1.5v17.897c0 3.579-2.912 6.491-6.491 6.491h-16.842v-61.397h16.842c3.579 0 6.491 2.912 6.491 6.491v15.797c0 .829.672 1.5 1.5 1.5z" fill="#3a312a"/><ellipse cx="76.57" cy="226.237" fill="#87796f" rx="6.028" ry="6.028" transform="matrix(.987 -.16 .16 .987 -35.25 15.187)"/><path d="m76.57 218.709c-4.151 0-7.528 3.377-7.528 7.528s3.377 7.528 7.528 7.528 7.528-3.377 7.528-7.528-3.377-7.528-7.528-7.528zm0 12.056c-2.497 0-4.528-2.031-4.528-4.528s2.031-4.528 4.528-4.528 4.528 2.031 4.528 4.528-2.031 4.528-4.528 4.528z" fill="#3a312a"/><path d="m232.024 157.144c-1.45-.07-2.9.25-4.18.92l-4.22 2.2c.69 1.08 1.08 2.35 1.05 3.69-.04 1.71-.69 2.98-2.03 3.91l-59.17 45.49c-7.07 4.959-16.561 5.97-16.545 6.11l14.015-.43c5.78-.37 11.4-2.34 16.2-5.68l59.17-45.49c1.34-.93 1.98-2.2 2.03-3.91.09-3.54-2.8-6.66-6.32-6.81z" fill="#decaad"/><path d="m47.946 26.393c-.974 11.564-13.024 13.39-13.024 13.39 10.347.487 12.925 14.059 12.925 14.059.221-9.677 13.321-14.202 13.321-14.202-9.813-.588-13.222-13.247-13.222-13.247z" fill="#d6df58"/><path d="m61.258 38.142c-8.605-.515-11.832-12.024-11.864-12.141-.19-.702-.85-1.158-1.583-1.102-.725.066-1.298.642-1.359 1.367-.861 10.216-11.314 11.965-11.755 12.034-.763.115-1.313.79-1.273 1.561.04.77.657 1.384 1.428 1.421 9.027.424 11.498 12.718 11.522 12.842.137.711.759 1.217 1.472 1.217.042 0 .084-.001.126-.005.764-.064 1.357-.693 1.375-1.459.194-8.509 12.191-12.777 12.313-12.819.675-.235 1.092-.914.994-1.623-.099-.709-.682-1.25-1.396-1.293zm-13.566 10.346c-1.357-3.13-3.709-6.907-7.587-8.876 2.931-1.405 6.409-3.913 8.202-8.272 1.551 3.071 4.199 6.88 8.333 8.722-3.007 1.639-6.922 4.404-8.948 8.426z" fill="#3a312a"/><path d="m26.248 43.374c-.689 8.179-9.212 9.47-9.212 9.47 7.318.344 9.142 9.944 9.142 9.944.156-6.844 9.422-10.045 9.422-10.045-6.942-.415-9.352-9.369-9.352-9.369z" fill="#d6df58"/><path d="m35.69 51.246c-5.767-.345-7.973-8.186-7.994-8.265-.19-.702-.851-1.166-1.582-1.102-.726.065-1.299.642-1.36 1.368-.579 6.871-7.646 8.067-7.942 8.114-.763.115-1.313.79-1.273 1.561.04.77.657 1.384 1.428 1.421 6.035.284 7.723 8.644 7.739 8.726.135.713.759 1.22 1.472 1.22.042 0 .083-.001.125-.005.765-.063 1.358-.694 1.376-1.461.13-5.709 8.331-8.634 8.413-8.662.676-.234 1.094-.913.996-1.622-.1-.709-.684-1.25-1.398-1.293zm-9.586 6.795c-.924-1.885-2.34-3.947-4.447-5.28 1.856-1.041 3.697-2.63 4.871-4.916 1.057 1.874 2.655 3.954 4.941 5.224-1.849 1.1-3.989 2.739-5.365 4.972z" fill="#3a312a"/><path d="m26.21 16.716c-.657 8.182-9.175 9.507-9.175 9.507 7.319.316 9.181 9.909 9.181 9.909.129-6.845 9.383-10.082 9.383-10.082-6.944-.389-9.389-9.334-9.389-9.334z" fill="#d6df58"/><path d="m35.682 24.552c-5.767-.323-8.004-8.154-8.026-8.233-.193-.702-.856-1.165-1.587-1.096-.725.068-1.297.647-1.355 1.374-.552 6.873-7.615 8.097-7.911 8.145-.762.119-1.31.796-1.267 1.566.042.77.663 1.382 1.433 1.415 6.036.261 7.757 8.614 7.773 8.695.138.71.76 1.214 1.471 1.214.043 0 .087-.002.131-.005.765-.066 1.356-.699 1.37-1.466.108-5.71 8.298-8.666 8.379-8.694.676-.236 1.09-.917.99-1.626-.1-.71-.687-1.249-1.401-1.289zm-9.558 6.832c-.932-1.882-2.356-3.938-4.468-5.262 1.852-1.048 3.686-2.644 4.851-4.936 1.064 1.87 2.67 3.944 4.962 5.205-1.846 1.108-3.978 2.755-5.345 4.993z" fill="#3a312a"/><path d="m168.521 22.515c-4.149-4.149-9.763-6.318-15.798-6.091-5.906.216-11.525 2.702-15.822 6.999-3.066 3.066-6.341 8.009-8.9 13.27-2.559-5.26-5.834-10.203-8.9-13.27-4.298-4.298-9.917-6.783-15.822-6.999-6.035-.227-11.649 1.942-15.798 6.091s-6.312 9.76-6.091 15.798c.216 5.906 2.702 11.525 7 15.822 4.164 4.164 11.788 8.718 18.971 11.333 4.472 1.628 8.465 2.44 11.905 2.44 3.522 0 6.456-.864 8.736-2.562 2.281 1.699 5.214 2.562 8.736 2.562 3.44 0 7.432-.812 11.905-2.44 7.183-2.614 14.807-7.168 18.971-11.333 4.298-4.298 6.784-9.917 7-15.822.219-6.039-1.944-11.649-6.093-15.798zm-45.352 33.027c-.118.923-.378 1.573-.733 1.929-1.14 1.141-5.314 1.296-11.781-1.058-5.889-2.143-12.243-5.882-15.453-9.092-2.571-2.571-4.057-5.896-4.184-9.361-.122-3.332 1.041-6.398 3.275-8.632 2.128-2.128 5.01-3.285 8.158-3.285.158 0 .316.003.475.009 3.466.127 6.79 1.613 9.361 4.184 3.21 3.21 6.949 9.565 9.092 15.453 1.074 2.952 1.621 5.42 1.795 7.346-.048.867-.054 1.705-.005 2.507zm37.63-8.221c-3.21 3.21-9.564 6.948-15.453 9.092-6.467 2.354-10.641 2.199-11.781 1.058-.356-.356-.615-1.006-.733-1.929.049-.801.043-1.64-.004-2.506.174-1.926.721-4.394 1.795-7.346 2.143-5.889 5.882-12.243 9.092-15.453 2.571-2.571 5.895-4.057 9.361-4.184.158-.006.317-.009.474-.009 3.148 0 6.03 1.156 8.158 3.285 2.234 2.234 3.397 5.3 3.275 8.632-.128 3.465-1.613 6.789-4.184 9.36z" fill="#d7e057"/><path d="m153.549 24.544c-.175 0-.35.003-.53.009-3.845.142-7.527 1.783-10.366 4.623-3.349 3.349-7.231 9.928-9.441 16-1.044 2.867-1.676 5.466-1.88 7.725-.006.072-.007.145-.003.217.046.844.048 1.629.005 2.333-.006.094-.003.188.009.282.16 1.247.55 2.189 1.16 2.799.829.83 2.29 1.24 4.211 1.24 2.429 0 5.593-.656 9.144-1.948 6.072-2.21 12.652-6.092 16-9.441 2.84-2.839 4.481-6.521 4.622-10.367.137-3.753-1.182-7.215-3.714-9.748-2.399-2.402-5.673-3.724-9.217-3.724zm6.189 21.717c-3.072 3.072-9.201 6.667-14.906 8.743-6.386 2.324-9.719 1.843-10.205 1.409-.053-.059-.2-.336-.291-.933.04-.752.038-1.545-.006-2.414.189-1.952.776-4.323 1.701-6.863 2.076-5.705 5.671-11.834 8.743-14.906 2.302-2.302 5.269-3.632 8.351-3.746 2.903-.104 5.593.909 7.521 2.837 1.936 1.937 2.943 4.606 2.837 7.517-.112 3.086-1.443 6.053-3.745 8.356zm-35.071 6.64c-.204-2.259-.836-4.857-1.88-7.725-2.21-6.072-6.092-12.652-9.441-16-2.839-2.839-6.521-4.481-10.371-4.623-3.739-.126-7.225 1.194-9.744 3.714-2.532 2.533-3.851 5.995-3.714 9.748.141 3.846 1.782 7.527 4.622 10.367 3.349 3.349 9.928 7.231 16.001 9.441 3.552 1.292 6.716 1.948 9.144 1.948 1.921 0 3.382-.41 4.211-1.24.61-.61 1.001-1.552 1.161-2.799.012-.093.015-.188.009-.282-.043-.704-.041-1.488.005-2.333.005-.072.004-.144-.003-.216zm-3.004 2.579c-.091.596-.238.874-.286.928-.491.438-3.823.92-10.21-1.404-5.705-2.076-11.834-5.671-14.906-8.743-2.302-2.302-3.632-5.27-3.745-8.355-.106-2.911.901-5.581 2.837-7.517 1.834-1.834 4.355-2.845 7.097-2.845.141 0 .282.002.419.007 3.086.113 6.053 1.444 8.355 3.746 3.072 3.072 6.667 9.201 8.743 14.906.925 2.541 1.512 4.911 1.701 6.863-.043.869-.045 1.662-.005 2.414zm47.918-34.026c-4.453-4.453-10.455-6.769-16.913-6.53-6.286.229-12.262 2.871-16.828 7.438-2.634 2.633-5.417 6.567-7.84 11.046-2.423-4.479-5.206-8.413-7.84-11.046-4.566-4.567-10.543-7.208-16.827-7.438-6.458-.236-12.462 2.076-16.915 6.53-4.447 4.446-6.767 10.453-6.53 16.914.231 6.285 2.872 12.261 7.438 16.828 4.305 4.305 12.149 9 19.519 11.682 8.943 3.255 16.207 3.364 21.154.282 2.396 1.493 5.329 2.248 8.736 2.248 3.628 0 7.806-.851 12.418-2.53 7.369-2.682 15.213-7.376 19.519-11.682 4.566-4.566 7.207-10.542 7.438-16.828.238-6.461-2.082-12.468-6.529-16.914zm-3.029 31.621c-4.025 4.023-11.428 8.438-18.424 10.983-8.443 3.073-15.137 3.134-19.232.084-.266-.198-.581-.297-.896-.297s-.63.099-.896.297c-4.094 3.05-10.789 2.989-19.232-.084-6.996-2.546-14.399-6.96-18.424-10.983-4.028-4.029-6.359-9.291-6.561-14.816-.206-5.618 1.802-10.833 5.653-14.683 3.857-3.857 9.066-5.867 14.683-5.653 5.526.202 10.788 2.532 14.816 6.561 2.869 2.869 6.089 7.678 8.612 12.865.251.516.774.844 1.349.844s1.098-.328 1.349-.844c2.523-5.187 5.743-9.996 8.612-12.865 4.029-4.029 9.291-6.359 14.818-6.561 5.623-.214 10.825 1.797 14.681 5.653 3.851 3.851 5.859 9.065 5.653 14.683-.202 5.525-2.533 10.786-6.561 14.816z" fill="#3a312a"/><path d="m77.01 91.763v65.58c0 3.2 2.594 5.794 5.794 5.794h90.392c3.2 0 5.794-2.594 5.794-5.794v-65.58z" fill="#8ac5dc"/><path d="m178.99 90.263h-101.98c-.829 0-1.5.671-1.5 1.5v65.58c0 4.021 3.272 7.293 7.294 7.293h90.392c4.022 0 7.294-3.272 7.294-7.293v-65.58c0-.828-.672-1.5-1.5-1.5zm-1.5 67.08c0 2.367-1.926 4.293-4.294 4.293h-90.392c-2.368 0-4.294-1.926-4.294-4.293v-64.08h98.979v64.08z" fill="#3a312a"/><path d="m182.631 65.137h-109.262c-3.2 0-5.794 2.594-5.794 5.794v15.039c0 3.2 2.594 5.794 5.794 5.794h109.262c3.2 0 5.794-2.594 5.794-5.794v-15.04c0-3.199-2.594-5.793-5.794-5.793z" fill="#8ac5dc"/><path d="m182.631 63.637h-109.262c-4.022 0-7.294 3.272-7.294 7.294v15.039c0 4.022 3.272 7.294 7.294 7.294h109.262c4.022 0 7.294-3.272 7.294-7.294v-15.039c0-4.022-3.272-7.294-7.294-7.294zm4.294 22.332c0 2.368-1.926 4.294-4.294 4.294h-109.262c-2.367 0-4.294-1.926-4.294-4.294v-15.038c0-2.368 1.926-4.294 4.294-4.294h109.262c2.368 0 4.294 1.926 4.294 4.294z" fill="#3a312a"/><path d="m122.379 65.137v98h11.242v-35.533-14.268-48.199z" fill="#d7e057"/><path d="m133.621 114.836c.829 0 1.5-.671 1.5-1.5v-48.199c0-.829-.671-1.5-1.5-1.5h-11.242c-.829 0-1.5.671-1.5 1.5v98c0 .829.671 1.5 1.5 1.5h11.242c.829 0 1.5-.671 1.5-1.5v-35.533c0-.829-.671-1.5-1.5-1.5s-1.5.671-1.5 1.5v34.033h-8.242v-95h8.242v46.699c0 .829.671 1.5 1.5 1.5z" fill="#3a312a"/></svg>